<svg xmlns="http://www.w3.org/2000/svg" viewBox="0 0 64 64" role="img" aria-labelledby="title desc">
  <title id="title">Digital Meeting Minutes</title>
  <desc id="desc">A meeting minutes document with a check mark</desc>
  <rect width="64" height="64" rx="14" fill="#0f766e"/>
  <path fill="#f8fafc" d="M20 10h21l9 9v35a4 4 0 0 1-4 4H20a4 4 0 0 1-4-4V14a4 4 0 0 1 4-4z"/>
  <path fill="#ccfbf1" d="M41 10v9h9z"/>
  <path fill="#0f766e" d="M24 25h20v4H24zm0 9h13v4H24zm0 9h10v4H24z"/>
  <path fill="#14b8a6" d="m42.3 46.5-5.7-5.7 3.1-3.1 2.6 2.6 7.3-7.3 3.1 3.1z"/>
</svg>
